# xmcd CD database file
#
# Track frame offsets:
#	225
#	16740
#	32002
#	49829
#	58624
#	72495
#	82578
#	97133
#	116026
#	126069
#	146300
#	152585
#	168267
#	176667
#	191344
#	206775
#	221027
#	229313
#	251302
#	263625
#
# Disc length: 3675 seconds
#
# Revision: 0
# Processed by: cddbd v1.5.2PL0 Copyright (c) Steve Scherf et al.
# Submitted via: CDex 1.70beta2
#
DISCID=120e5814
DTITLE=Various Artist - Edice talent
DYEAR=1900
DGENRE=Country
TTITLE0=Arizona
TTITLE1=Ve svých dlaních
TTITLE2=Klondike
TTITLE3=Ze života
TTITLE4=Odcházím
TTITLE5=Truhlice
TTITLE6=Jako nebe
TTITLE7=Tátovi
TTITLE8=Pátý smysl
TTITLE9=Sláva a pád
TTITLE10=Díky
TTITLE11=Už zase sním
TTITLE12=Že prej mám ženu zlou
TTITLE13=Bílej
TTITLE14=Dárečky
TTITLE15=Na zamyšlenou
TTITLE16=Línej řeky proud
TTITLE17=Michalovi
TTITLE18=Vlues dálnice 40
TTITLE19=Než mě zahrabou
EXTD=
EXTT0=
EXTT1=
EXTT2=
EXTT3=
EXTT4=
EXTT5=
EXTT6=
EXTT7=
EXTT8=
EXTT9=
EXTT10=
EXTT11=
EXTT12=
EXTT13=
EXTT14=
EXTT15=
EXTT16=
EXTT17=
EXTT18=
EXTT19=
PLAYORDER=
